<svg width="12" height="12" viewBox="0 0 12 12" fill="none" xmlns="http://www.w3.org/2000/svg">
<path d="M9.62589 5.42069L9.891 5.15558L9.09567 4.36025L7.63874 2.90331L6.8434 2.10798L6.57829 2.37309L6.04807 2.90331L1.37461 7.57677C1.13062 7.82077 0.952315 8.12341 0.853778 8.45422L0.023254 11.2789C-0.0353988 11.476 0.0185618 11.6895 0.166367 11.835C0.314172 11.9804 0.525322 12.0344 0.722396 11.9781L3.54477 11.1476C3.87557 11.049 4.17822 10.8707 4.42222 10.6267L9.09567 5.95326L9.62589 5.42069ZM3.75357 9.37155L3.54008 9.90411C3.44623 9.97684 3.34066 10.0308 3.22804 10.066L1.39338 10.6056L1.93299 8.77329C1.96584 8.65833 2.02214 8.55275 2.09487 8.46126L2.62744 8.24776V8.99851C2.62744 9.20497 2.79636 9.37389 3.00282 9.37389H3.75357V9.37155ZM8.50914 0.439896L8.1713 0.780082L7.64108 1.3103L7.37363 1.57541L8.16896 2.37075L9.62589 3.82768L10.4212 4.62302L10.6863 4.3579L11.2166 3.82768L11.5567 3.4875C12.1433 2.90097 12.1433 1.95079 11.5567 1.36426L10.6347 0.439896C10.0482 -0.146632 9.09802 -0.146632 8.51149 0.439896H8.50914ZM7.39709 4.38137L4.01868 7.75977C3.87322 7.90523 3.63392 7.90523 3.48846 7.75977C3.343 7.61431 3.343 7.37501 3.48846 7.22955L6.86687 3.85114C7.01232 3.70569 7.25163 3.70569 7.39709 3.85114C7.54255 3.9966 7.54255 4.23591 7.39709 4.38137Z" fill="#7E22CE"/>
</svg>
